<svg xmlns="http://www.w3.org/2000/svg" viewBox="0 0 482.93 84.55"><defs><style>.cls-1{font-size:70.87px;font-family:MyriadPro-Bold, Myriad Pro;font-weight:700;}.cls-1,.cls-4{fill:#fff;}.cls-2{letter-spacing:0em;}.cls-3{letter-spacing:-0.01em;}</style></defs><title>streamingfy</title><g id="Layer_1" data-name="Layer 1"><text class="cls-1" transform="translate(93.22 66.83)"><tspan class="cls-2">S</tspan><tspan x="37.92" y="0">t</tspan><tspan class="cls-3" x="63.92" y="0">r</tspan><tspan x="90.29" y="0">eamingfy</tspan></text><path class="cls-4" d="M985.76,562.91a37.93,37.93,0,0,1-12.16,9.32c1-7,2-24.62-11.51-38.55a44,44,0,0,0-38.43-12.76,37.81,37.81,0,0,1,10.44-12.55h0c14-1.61,28.43,3.76,38.68,14.68C986.34,537.45,986.52,555,985.76,562.91Z" transform="translate(-918 -497.76)"/><path class="cls-4" d="M988.43,560.07c.75-7.86.58-25.41-12.93-39.78-10.24-10.89-24.63-16.25-38.6-14.64a37.66,37.66,0,0,1,51.54,54.43Z" transform="translate(-918 -497.76)"/></g><g id="Layer_2" data-name="Layer 2"><path class="cls-4" d="M969.94,573.1a35.64,35.64,0,0,1-9,2.94c0-8.09-2.11-19.58-11.43-29.21a41.66,41.66,0,0,0-30.3-12.63,35.55,35.55,0,0,1,3.37-9.8A41.73,41.73,0,0,1,959,536.51C971.83,549.73,970.93,566.49,969.94,573.1Z" transform="translate(-918 -497.76)"/><path class="cls-4" d="M956.93,576.2a33,33,0,0,1-38.37-38.47,37.77,37.77,0,0,1,38.37,38.47Z" transform="translate(-918 -497.76)"/></g></svg>